<?xml version="1.0" encoding="UTF-8"?>
<svg id="Layer_1" data-name="Layer 1" xmlns="http://www.w3.org/2000/svg" viewBox="0 0 1811.4148982403 285.4833008665">
  <g>
    <path d="M456.4711116193,116.6253678221c-2.8564453125-3.8759765625-6.5786132812-6.7060546875-11.1708984375-8.490234375-4.587890625-1.7841796875-9.0791015625-2.6806640625-13.46484375-2.6806640625-5.6118164062,0-10.7094726562,1.01953125-15.2973632812,3.05859375-4.5922851562,2.0478515625-8.5473632812,4.8515625-11.8608398438,8.419921875s-5.8666992188,7.751953125-7.646484375,12.5419921875c-1.7885742188,4.7988204956-2.6806640625,10.0019454956-2.6806640625,15.6093673706,0,5.9150543213,.8657226562,11.3159332275,2.6015625,16.2114257812s4.2099609375,9.10546875,7.4223632812,12.62109375c3.2124023438,3.5244140625,7.0620117188,6.2490234375,11.548828125,8.1826171875,4.4868164062,1.9423828125,9.5361328125,2.9091796875,15.1479492188,2.9091796875,5.8139648438,0,10.9643554688-1.142578125,15.4555664062-3.4365234375,4.4868164062-2.302734375,8.1079101562-5.3349609375,10.86328125-9.10546875l15.451171875,10.86328125c-4.7944335938,6.0205078125-10.6611328125,10.6875-17.595703125,14.0009765625-6.9389648438,3.3134765625-15.046875,4.9658203125-24.328125,4.9658203125-8.4638671875,0-16.2421875-1.3974609375-23.3305664062-4.201171875-7.0927734375-2.8037109375-13.18359375-6.732421875-18.2856445312-11.7861328125-5.09765625-5.044921875-9.0791015625-11.0654296875-11.9311523438-18.052734375-2.8564453125-6.9873046875-4.2846679688-14.712890625-4.2846679688-23.1723632812,0-8.6748046875,1.5029296875-16.4970703125,4.5131835938-23.484375,3.005859375-6.9873046875,7.13671875-12.9287109375,12.392578125-17.82421875,5.2514648438-4.8955078125,11.4477539062-8.6748046875,18.5888671875-11.3291015625,7.1411132812-2.6455078125,14.8930664062-3.97265625,23.255859375-3.97265625,3.4672851562,0,7.0883789062,.333984375,10.86328125,.9931640625,3.7749023438,.66796875,7.3959960938,1.6787109375,10.86328125,3.05859375s6.732421875,3.0849609375,9.791015625,5.1240234375c3.0629882812,2.0478515625,5.6645507812,4.4912109375,7.8046875,7.34765625,0,0-14.6865234375,11.6279296875-14.6865234375,11.6279220581v.0000152588Z"/>
    <path d="M483.8578303693,91.2249771971h38.3994140625c7.0400390625,0,14.1284179688,.9228515625,21.26953125,2.7509765625,7.13671875,1.8369140625,13.5659179688,4.8779296875,19.2788085938,9.10546875,5.7084960938,4.236328125,10.3491210938,9.791015625,13.9218139648,16.681640625,3.568359375,6.8818359375,5.3569335938,15.4247970581,5.3569335938,25.6288986206,0,9.479019165-1.7885742188,17.6352539062-5.3569335938,24.4731445312-3.5727539062,6.8291015625-8.2133789062,12.4453125-13.921875,16.8310546875-5.712890625,4.3857421875-12.1420898438,7.6201171875-19.2788085938,9.7119140625-7.1411132812,2.091796875-14.2294921875,3.1376953125-21.26953125,3.1376953125h-38.3994140625s0-108.3208084106,.0000305176-108.3208084106l.0000305176,.0000152588Zm35.3408203125,91.4897537231c4.9965820312,0,9.9975585938-.5888671875,14.994140625-1.7578125s9.509765625-3.1640625,13.5395507812-5.9677734375,7.3212890625-6.6005859375,9.8701171875-11.3994140625c2.548828125-4.7900390625,3.8232421875-10.8588867188,3.8232421875-18.1977539062,0-7.751953125-1.2744140625-14.080078125-3.8232421875-18.9755859375s-5.8403320312-8.71875-9.8701171875-11.478515625c-4.0297851562-2.7509765625-8.54296875-4.640625-13.5395507812-5.66015625s-9.9975585938-1.529296875-14.994140625-1.529296875h-16.06640625v74.9663085938h16.06640625Z"/>
    <path d="M599.8295100568,91.2249771971h35.3408203125c6.22265625,0,11.830078125,.5625,16.8310546875,1.6875,4.9965820312,1.1162109375,9.28125,2.953125,12.849609375,5.501953125,3.5727539062,2.5576171875,6.3237304688,5.818359375,8.2661132812,9.791015625,1.93359375,3.9814453125,2.9047851562,8.7802734375,2.9047851562,14.3876953125,0,6.0205078125-1.125,11.0654220581-3.3662109375,15.1435470581-2.2456054688,4.078125-5.2778320312,7.3740234375-9.1010742188,9.8701324463-3.8276367188,2.49609375-8.2924804688,4.306640625-13.3901367188,5.431640625-5.1020507812,1.1206054688-10.5073242188,1.6743164062-16.2158203125,1.6743164062h-14.8447265625v44.8330078125h-19.2744140625V91.2249771971Zm32.7392578125,47.2763595581c3.1596679688,0,6.169921875-.228515625,9.0263671875-.685546875s5.4052734375-1.2744140625,7.6508789062-2.4521484375c2.2412109375-1.1689453125,4.0297851562-2.77734375,5.3569335938-4.81640625,1.3227539062-2.0390625,1.986328125-4.693359375,1.986328125-7.9541015625,0-3.1640625-.6635742188-5.7392578125-1.986328125-7.7255859375-1.3271484375-1.9951171875-3.0893554688-3.5419921875-5.2778320312-4.6669921875-2.197265625-1.125-4.693359375-1.86328125-7.4970703125-2.2236328125-2.8081054688-.3515625-5.6909179688-.5361328125-8.6440429688-.5361328125h-14.080078125v31.060546875h13.46484375Z"/>
    <path d="M774.244060838,190.2117859739h-.4614257812c-1.8325195312,3.26953125-4.7944335938,5.94140625-8.8725585938,8.033203125s-8.71875,3.1376953125-13.921875,3.1376953125c-2.9619140625,0-6.0424804688-.38671875-9.2548828125-1.1513671875-3.216796875-.7646484375-6.1743164062-2.0390625-8.876953125-3.8232421875s-4.9482421875-4.130859375-6.732421875-7.0400390625c-1.7841796875-2.900390625-2.6762695312-6.4951171875-2.6762695312-10.7841796875,0-5.5107421875,1.5556640625-9.8876953125,4.6669921875-13.1572265625,3.111328125-3.2607421875,7.1147460938-5.765625,12.0102539062-7.4970703125s10.3271484375-2.8828125,16.294921875-3.4453125c5.9677734375-.5537109375,11.8037109375-.8349609375,17.5166015625-.8349609375v-1.8325195312c0-4.5966796875-1.6567382812-7.98046875-4.9702148438-10.177734375-3.3178710938-2.1884765625-7.2685546875-3.287109375-11.8564453125-3.287109375-3.8803710938,0-7.6025390625,.8173828125-11.1708984375,2.443359375-3.5727539062,1.634765625-6.5302734375,3.62109375-8.8725585938,5.9677734375l-9.4877929688-11.1708984375c4.1791992188-3.8671875,9-6.7763671875,14.4580078125-8.71875,5.4580078125-1.93359375,10.9907226562-2.9091796875,16.6025390625-2.9091796875,6.5258789062,0,11.9047851562,.9228515625,16.1411132812,2.759765625,4.2319335938,1.8369140625,7.5717773438,4.236328125,10.01953125,7.189453125,2.4477539062,2.9619140625,4.1572265625,6.275390625,5.1284179688,9.9404296875,.966796875,3.673828125,1.4501953125,7.34765625,1.4501953125,11.0170898438v44.6748046875h-17.1342773438v-9.333984375Zm-.3076171875-24.169921875h-4.130859375c-2.9575195312,0-6.0688476562,.123046875-9.333984375,.3779296875s-6.2709960938,.8173828125-9.0263671875,1.6875c-2.7509765625,.861328125-5.0493164062,2.091796875-6.8818359375,3.6650390625-1.8369140625,1.5908203125-2.7553710938,3.7529296875-2.7553710938,6.50390625,0,1.740234375,.3823242188,3.1904296875,1.1469726562,4.359375,.7646484375,1.177734375,1.7578125,2.1181640625,2.9838867188,2.830078125,1.2216796875,.720703125,2.6015625,1.23046875,4.130859375,1.5380859375,1.529296875,.298828125,3.05859375,.45703125,4.587890625,.45703125,6.3237304688,0,11.1181640625-1.6875,14.3833007812-5.0537109375s4.8955078125-7.9541015625,4.8955078125-13.763671875v-2.6015625Z"/>
    <path d="M811.8832209943,126.1087662596h17.4418945312v11.7861251831h.3032226562c1.6303710938-3.673828125,4.46484375-6.9169921875,8.4946289062-9.720703125,4.025390625-2.8037109375,8.7978515625-4.2099609375,14.3041992188-4.2099609375,4.7944335938,0,8.8989257812,.84375,12.3178710938,2.53125,3.4145507812,1.6787109375,6.2182617188,3.90234375,8.4155273438,6.6533203125,2.1884765625,2.7509765625,3.796875,5.9150390625,4.81640625,9.4833984375,1.01953125,3.5771484375,1.529296875,7.2422027588,1.529296875,11.0171051025v45.896484375h-18.3559570312v-40.7021484375c0-2.1357421875-.1538085938-4.376953125-.4614257812-6.7192382812-.3076171875-2.3466796875-.9711914062-4.46484375-1.9907226562-6.3544921875s-2.4213867188-3.4453125-4.2055664062-4.6669921875-4.1572265625-1.8369140625-7.1147460938-1.8369140625-5.5063476562,.5888671875-7.6508789062,1.7578125c-2.1401367188,1.177734375-3.90234375,2.6806640625-5.2778320312,4.517578125s-2.42578125,3.955078125-3.1376953125,6.345703125c-.7119140625,2.3950195312-1.0678710938,4.8208007812-1.0678710938,7.2641601562v40.39453125h-18.3603515625V126.1087662596Z"/>
    <path d="M974.669842088,199.5457703489h-17.4375v-11.0126953125h-.3076171875c-2.548828125,4.2802734375-6.099609375,7.5498046875-10.634765625,9.791015625s-9.4130859375,3.3662109375-14.607421875,3.3662109375c-5.6162109375,0-10.6391601562-1.0458984375-15.0776367188-3.1376953125-4.4340820312-2.091796875-8.208984375-4.8955078125-11.3203125-8.419921875-3.111328125-3.515625-5.5063476562-7.646484375-7.189453125-12.392578125-1.6831054688-4.7373046875-2.5268554688-9.80859375-2.5268554688-15.22265625,0-5.4052734375,.8657226562-10.4458007812,2.6015625-15.1391601562,1.7314453125-4.693359375,4.1791992188-8.771484375,7.3432617188-12.2431640625,3.1596679688-3.462890625,6.9345703125-6.1962890625,11.3247070312-8.1826171875,4.3813476562-1.986328125,9.17578125-2.98828125,14.37890625-2.98828125,3.3662109375,0,6.380859375,.38671875,9.0263671875,1.1513671875,2.654296875,.7646484375,4.974609375,1.705078125,6.9609375,2.830078125,1.9951171875,1.125,3.7001953125,2.3466796875,5.1328125,3.673828125,1.423828125,1.3271484375,2.6015625,2.6015625,3.515625,3.8232421875h.45703125v-51.556640625h18.3603515625v115.6596679688Zm-60.43359375-37.0283203125c0,2.8564453125,.4306640625,5.712890625,1.30078125,8.5693359375,.8657226562,2.8564453125,2.162109375,5.4052734375,3.8979492188,7.6552734375,1.7358398438,2.2412109375,3.9331054688,4.078125,6.5786132812,5.501953125,2.654296875,1.4326171875,5.765625,2.14453125,9.333984375,2.14453125,3.3662109375,0,6.380859375-.685546875,9.0263671875-2.0654296875,2.654296875-1.3798828125,4.921875-3.1904296875,6.8115234375-5.431640625s3.3134765625-4.763671875,4.2890625-7.576171875c.966796875-2.8037109375,1.4501953125-5.6337890625,1.4501953125-8.490234375s-.4833984375-5.712890625-1.4501953125-8.5693359375c-.9755859375-2.8520507812-2.3994140625-5.4008789062-4.2890625-7.6420898438s-4.1572265625-4.078125-6.8115234375-5.5107421875c-2.6455078125-1.423828125-5.66015625-2.14453125-9.0263671875-2.14453125-3.568359375,0-6.6796875,.6943359375-9.333984375,2.0654296875-2.6455078125,1.3798828125-4.8427734375,3.1904296875-6.5786132812,5.431640625-1.7358398438,2.25-3.0322265625,4.7724609375-3.8979492188,7.5717773438-.8701171875,2.8037109375-1.30078125,5.6337890625-1.30078125,8.490234375Z"/>
    <path d="M1034.3387263653,91.2249771971h35.349609375c6.22265625,0,11.830078125,.5625,16.822265625,1.6875,4.9921875,1.1162109375,9.28125,2.953125,12.849609375,5.501953125,3.568359375,2.5576171875,6.328125,5.818359375,8.26171875,9.791015625,1.951171875,3.9814453125,2.91796875,8.7802734375,2.91796875,14.3876953125,0,6.0205078125-1.125,11.0654220581-3.375,15.1435470581-2.232421875,4.078125-5.2734375,7.3740234375-9.10546875,9.8701324463-3.814453125,2.49609375-8.279296875,4.306640625-13.376953125,5.431640625-5.09765625,1.1206054688-10.51171875,1.6743164062-16.224609375,1.6743164062h-14.8359375v44.8330078125h-19.283203125V91.2249771971Zm32.748046875,47.2763595581c3.1640625,0,6.169921875-.228515625,9.017578125-.685546875,2.865234375-.45703125,5.4140625-1.2744140625,7.6640625-2.4521484375,2.232421875-1.1689453125,4.025390625-2.77734375,5.34375-4.81640625,1.3359375-2.0390625,1.986328125-4.693359375,1.986328125-7.9541015625,0-3.1640625-.650390625-5.7392578125-1.986328125-7.7255859375-1.318359375-1.9951171875-3.076171875-3.5419921875-5.2734375-4.6669921875s-4.693359375-1.86328125-7.505859375-2.2236328125c-2.794921875-.3515625-5.677734375-.5361328125-8.630859375-.5361328125h-14.080078125v31.060546875h13.46484375Z"/>
    <path d="M1185.9676326153,163.7479187864v2.443359375c0,.8173828125-.052734375,1.634765625-.1494140625,2.4521484375h-55.845703125c.2021484375,2.654296875,.8876953125,5.0712890625,2.0654296875,7.259765625,1.1689453125,2.197265625,2.724609375,4.0869140625,4.6669921875,5.6689453125,1.93359375,1.58203125,4.130859375,2.830078125,6.57421875,3.744140625,2.4521484375,.9228515625,5.0009765625,1.3798828125,7.6552734375,1.3798828125,4.587890625,0,8.4638671875-.84375,11.6279296875-2.53125,3.1552734375-1.6787109375,5.7568359375-3.9990234375,7.8046875-6.9609375l12.234375,9.7998046875c-7.2421875,9.791015625-17.7451171875,14.6865234375-31.517578125,14.6865234375-5.712890625,0-10.9599609375-.896484375-15.7587890625-2.6806640625-4.7900390625-1.7841796875-8.947265625-4.306640625-12.4716796875-7.576171875-3.515625-3.2607421875-6.2666015625-7.2685546875-8.26171875-12.005859375-1.986328125-4.74609375-2.9794921875-10.125-2.9794921875-16.1455078125,0-5.9150390625,.9931640625-11.2895507812,2.9794921875-16.1323242188,1.9951171875-4.8427734375,4.7197265625-8.9736328125,8.19140625-12.392578125,3.462890625-3.4189453125,7.5673828125-6.0732421875,12.3134765625-7.962890625,4.74609375-1.880859375,9.8701171875-2.830078125,15.380859375-2.830078125,5.09765625,0,9.80859375,.84375,14.150390625,2.53125,4.3330078125,1.6787109375,8.0771484375,4.18359375,11.2412109375,7.4970703125s5.6337890625,7.4443359375,7.4267578125,12.392578125c1.7841796875,4.9482421875,2.671875,10.7270507812,2.671875,17.3627929688Zm-18.3603515625-8.2705078125c0-2.3334960938-.333984375-4.5834960938-.9931640625-6.7192382812-.6591796875-2.14453125-1.705078125-4.0341796875-3.1376953125-5.6689453125-1.423828125-1.6259765625-3.234375-2.9267578125-5.431640625-3.8935546875-2.1884765625-.9755859375-4.763671875-1.458984375-7.7255859375-1.458984375-5.5107421875,0-10.1689453125,1.6611328125-14.0009765625,4.974609375-3.8232421875,3.3134765625-5.94140625,7.576171875-6.345703125,12.7661132812h37.634765625Z"/>
    <path d="M1202.7986873028,126.1087662596h17.595703125v12.2431564331h.3076171875c2.0390625-4.2890625,4.8955078125-7.751953125,8.5693359375-10.40625s7.9541015625-3.9814453125,12.849609375-3.9814453125c.7119140625,0,1.4765625,.0263671875,2.2939453125,.0791015625s1.529296875,.1845703125,2.14453125,.38671875v16.8310546875c-1.2216796875-.3076171875-2.267578125-.509765625-3.1376953125-.615234375s-1.705078125-.1494140625-2.5224609375-.1494140625c-4.18359375,0-7.5498046875,.7646484375-10.0986328125,2.2939453125s-4.53515625,3.3662109375-5.9677734375,5.5019683838c-1.4326171875,2.14453125-2.3994140625,4.341796875-2.9091796875,6.5786132812-.509765625,2.2412109375-.7646484375,4.025390625-.7646484375,5.3525390625v39.322265625h-18.3603515625V126.1087662596Z"/>
    <path d="M1297.8084529278,145.6907898802c-1.634765625-2.1357421875-3.884765625-3.9990234375-6.732421875-5.5810546875-2.8564453125-1.58203125-5.9677734375-2.373046875-9.333984375-2.373046875-2.9619140625,0-5.66015625,.615234375-8.1123046875,1.8369140625-2.443359375,1.2216796875-3.673828125,3.26953125-3.673828125,6.1171875,0,2.8564605713,1.353515625,4.8779449463,4.060546875,6.0468902588,2.6982421875,1.177734375,6.6533203125,2.3686523438,11.8564453125,3.5903320312,2.7509765625,.615234375,5.5283203125,1.4326171875,8.3408203125,2.4521484375,2.8037109375,1.01953125,5.3525390625,2.3642578125,7.646484375,4.0517578125,2.2939453125,1.6787109375,4.1572265625,3.7705078125,5.5810546875,6.275390625,1.4326171875,2.49609375,2.14453125,5.5283203125,2.14453125,9.0966796875,0,4.4912109375-.84375,8.2880859375-2.5224609375,11.3994140625-1.6875,3.111328125-3.9287109375,5.642578125-6.732421875,7.576171875-2.8037109375,1.9423828125-6.0732421875,3.33984375-9.791015625,4.2099609375-3.7265625,.861328125-7.576171875,1.30078125-11.5576171875,1.30078125-5.712890625,0-11.267578125-1.0458984375-16.6728515625-3.1376953125s-9.896484375-5.0712890625-13.46484375-8.9560546875l12.0849609375-11.3203125c2.0390625,2.654296875,4.693359375,4.8515625,7.962890625,6.5830078125,3.2607421875,1.7314453125,6.8818359375,2.6015625,10.86328125,2.6015625,1.318359375,0,2.671875-.158203125,4.0517578125-.45703125,1.3798828125-.3076171875,2.6455078125-.791015625,3.8232421875-1.458984375,1.1689453125-.6591796875,2.1181640625-1.5556640625,2.830078125-2.671875,.7119140625-1.125,1.072265625-2.5048828125,1.072265625-4.130859375,0-3.0673828125-1.40625-5.255859375-4.2099609375-6.5830078125s-7.013671875-2.654296875-12.62109375-3.9814453125c-2.7509765625-.6064453125-5.431640625-1.3974609375-8.033203125-2.3642578125-2.6015625-.9755859375-4.921875-2.25-6.9609375-3.83203125-2.0390625-1.5732421875-3.673828125-3.5419921875-4.8955078125-5.888671875s-1.8369140625-5.2426757812-1.8369140625-8.7143554688c0-4.078125,.84375-7.6025390625,2.5224609375-10.5556640625,1.6875-2.9619140625,3.90234375-5.37890625,6.662109375-7.2685546875,2.7509765625-1.8896484375,5.8623046875-3.287109375,9.333984375-4.2099609375,3.462890625-.9140625,7.03125-1.3798828125,10.705078125-1.3798828125,5.2998046875,0,10.4853515625,.9228515625,15.5302734375,2.759765625s9.052734375,4.640625,12.0146484375,8.4111328125c0,0-11.935546875,10.5556640625-11.935546875,10.5556488037Z"/>
    <path d="M1320.2996638653,162.5174500364c0-5.8095703125,1.0458984375-11.0874023438,3.1376953125-15.8247070312,2.091796875-4.74609375,4.921875-8.7978515625,8.490234375-12.1640625s7.8046875-5.9677734375,12.7001953125-7.8046875,10.0986328125-2.759765625,15.6005859375-2.759765625c5.5107421875,0,10.7138671875,.9228515625,15.609375,2.759765625s9.1318359375,4.4384765625,12.7001953125,7.8046875,6.3984375,7.41796875,8.490234375,12.1640625c2.091796875,4.7373046875,3.1376953125,10.0151367188,3.1376953125,15.8247070312,0,5.818359375-1.0458984375,11.1181640625-3.1376953125,15.9169921875-2.091796875,4.7900390625-4.921875,8.89453125-8.490234375,12.3134765625s-7.8046875,6.099609375-12.7001953125,8.033203125-10.0986328125,2.9091796875-15.609375,2.9091796875c-5.501953125,0-10.705078125-.9755859375-15.6005859375-2.9091796875s-9.1318359375-4.6142578125-12.7001953125-8.033203125-6.3984375-7.5234375-8.490234375-12.3134765625c-2.091796875-4.798828125-3.1376953125-10.0986328125-3.1376953125-15.9169921875Zm18.66796875,0c0,2.8564453125,.4306640625,5.712890625,1.30078125,8.5693359375,.861328125,2.8564453125,2.162109375,5.4052734375,3.90234375,7.6552734375,1.7314453125,2.2412109375,3.919921875,4.078125,6.57421875,5.501953125,2.654296875,1.4326171875,5.818359375,2.14453125,9.4833984375,2.14453125,3.673828125,0,6.837890625-.7119140625,9.4921875-2.14453125,2.6455078125-1.423828125,4.8427734375-3.2607421875,6.57421875-5.501953125,1.7314453125-2.25,3.0322265625-4.798828125,3.90234375-7.6552734375s1.30078125-5.712890625,1.30078125-8.5693359375-.4306640625-5.6865234375-1.30078125-8.490234375c-.8701171875-2.7993164062-2.1708984375-5.3217773438-3.90234375-7.5717773438-1.7314453125-2.2412109375-3.9287109375-4.0517578125-6.57421875-5.431640625-2.654296875-1.37109375-5.818359375-2.0654296875-9.4921875-2.0654296875-3.6650390625,0-6.8291015625,.6943359375-9.4833984375,2.0654296875-2.654296875,1.3798828125-4.8427734375,3.1904296875-6.57421875,5.431640625-1.740234375,2.25-3.041015625,4.7724609375-3.90234375,7.5717773438-.8701171875,2.8037109375-1.30078125,5.6337890625-1.30078125,8.490234375Z"/>
    <path d="M1416.9881404278,126.1087662596h17.4462890625v11.7861251831h.3076171875c1.6259765625-3.673828125,4.4560546875-6.9169921875,8.490234375-9.720703125,4.025390625-2.8037109375,8.7978515625-4.2099609375,14.2998046875-4.2099609375,4.798828125,0,8.9033203125,.84375,12.322265625,2.53125,3.4189453125,1.6787109375,6.22265625,3.90234375,8.4111328125,6.6533203125,2.197265625,2.7509765625,3.796875,5.9150390625,4.8251953125,9.4833984375,1.01953125,3.5771484375,1.529296875,7.2422027588,1.529296875,11.0171051025v45.896484375h-18.3603515625v-40.7021484375c0-2.1357421875-.158203125-4.376953125-.45703125-6.7192382812-.3076171875-2.3466796875-.9755859375-4.46484375-1.9951171875-6.3544921875s-2.42578125-3.4453125-4.201171875-4.6669921875c-1.79296875-1.2216796875-4.166015625-1.8369140625-7.119140625-1.8369140625-2.9619140625,0-5.5107421875,.5888671875-7.646484375,1.7578125-2.14453125,1.177734375-3.90234375,2.6806640625-5.2822265625,4.517578125s-2.42578125,3.955078125-3.1376953125,6.345703125c-.7119140625,2.3950195312-1.072265625,4.8208007812-1.072265625,7.2641601562v40.39453125h-18.3603515625V126.1087662596Z"/>
    <path d="M1550.7137263653,190.2117859739h-.45703125c-1.8369140625,3.26953125-4.798828125,5.94140625-8.876953125,8.033203125s-8.71875,3.1376953125-13.921875,3.1376953125c-2.9619140625,0-6.046875-.38671875-9.2548828125-1.1513671875-3.216796875-.7646484375-6.1787109375-2.0390625-8.876953125-3.8232421875-2.70703125-1.7841796875-4.9482421875-4.130859375-6.732421875-7.0400390625-1.7841796875-2.900390625-2.671875-6.4951171875-2.671875-10.7841796875,0-5.5107421875,1.546875-9.8876953125,4.658203125-13.1572265625,3.111328125-3.2607421875,7.119140625-5.765625,12.0146484375-7.4970703125s10.3271484375-2.8828125,16.294921875-3.4453125c5.9677734375-.5537109375,11.8037109375-.8349609375,17.5166015625-.8349609375v-1.8325195312c0-4.5966796875-1.6611328125-7.98046875-4.974609375-10.177734375-3.3134765625-2.1884765625-7.259765625-3.287109375-11.8564453125-3.287109375-3.8759765625,0-7.59375,.8173828125-11.1708984375,2.443359375-3.568359375,1.634765625-6.521484375,3.62109375-8.8681640625,5.9677734375l-9.4833984375-11.1708984375c4.1748046875-3.8671875,9-6.7763671875,14.4580078125-8.71875,5.44921875-1.93359375,10.986328125-2.9091796875,16.59375-2.9091796875,6.5302734375,0,11.9091796875,.9228515625,16.1455078125,2.759765625,4.2275390625,1.8369140625,7.576171875,4.236328125,10.01953125,7.189453125,2.4521484375,2.9619140625,4.1572265625,6.275390625,5.1240234375,9.9404296875,.966796875,3.673828125,1.458984375,7.34765625,1.458984375,11.0170898438v44.6748046875h-17.138671875v-9.333984375Zm-.3076171875-24.169921875h-4.130859375c-2.9619140625,0-6.064453125,.123046875-9.333984375,.3779296875-3.2607421875,.2548828125-6.2666015625,.8173828125-9.0263671875,1.6875-2.7509765625,.861328125-5.044921875,2.091796875-6.8818359375,3.6650390625-1.8369140625,1.5908203125-2.759765625,3.7529296875-2.759765625,6.50390625,0,1.740234375,.38671875,3.1904296875,1.1513671875,4.359375,.7646484375,1.177734375,1.7578125,2.1181640625,2.9794921875,2.830078125,1.23046875,.720703125,2.6015625,1.23046875,4.130859375,1.5380859375,1.5380859375,.298828125,3.0673828125,.45703125,4.5966796875,.45703125,6.3193359375,0,11.1181640625-1.6875,14.37890625-5.0537109375s4.8955078125-7.9541015625,4.8955078125-13.763671875v-2.6015625Z"/>
    <path d="M1588.6473201153,83.8861100096h18.3603515625v115.6596755981h-18.3603515625V83.8861100096Z"/>
    <path d="M1626.1326716778,101.1741959471c0-2.9619140625,1.0986328125-5.537109375,3.2958984375-7.7255859375,2.1884765625-2.197265625,4.9658203125-3.2958984375,8.33203125-3.2958984375s6.1962890625,1.0458984375,8.490234375,3.1376953125c2.302734375,2.091796875,3.4453125,4.7197265625,3.4453125,7.8837890625s-1.142578125,5.783203125-3.4453125,7.875c-2.2939453125,2.091796875-5.1240234375,3.1376953125-8.490234375,3.1376953125s-6.1435546875-1.0986328125-8.33203125-3.287109375c-2.197265625-2.197265625-3.2958984375-4.7724609375-3.2958984375-7.7255859375Zm2.6015625,24.9345703125h18.3603515625v73.4370193481h-18.3603515625V126.1087662596Z"/>
    <path d="M1662.6951716778,183.3299500364l39.6298828125-42.5346679688h-37.79296875v-14.6865234375h59.6689453125v16.2158203125l-39.779296875,42.2270507812h41.6162109375v14.994140625h-63.3427734375v-16.2158203125Z"/>
    <path d="M1811.4148982403,163.7479187864v2.443359375c0,.8173828125-.052734375,1.634765625-.1494140625,2.4521484375h-55.845703125c.2021484375,2.654296875,.8876953125,5.0712890625,2.0654296875,7.259765625,1.1689453125,2.197265625,2.724609375,4.0869140625,4.6669921875,5.6689453125,1.93359375,1.58203125,4.130859375,2.830078125,6.57421875,3.744140625,2.4521484375,.9228515625,5.0009765625,1.3798828125,7.6552734375,1.3798828125,4.587890625,0,8.4638671875-.84375,11.6279296875-2.53125,3.1552734375-1.6787109375,5.7568359375-3.9990234375,7.8046875-6.9609375l12.234375,9.7998046875c-7.2421875,9.791015625-17.7451171875,14.6865234375-31.517578125,14.6865234375-5.712890625,0-10.9599609375-.896484375-15.7587890625-2.6806640625-4.7900390625-1.7841796875-8.947265625-4.306640625-12.4716796875-7.576171875-3.515625-3.2607421875-6.2666015625-7.2685546875-8.26171875-12.005859375-1.986328125-4.74609375-2.9794921875-10.125-2.9794921875-16.1455078125,0-5.9150390625,.9931640625-11.2895507812,2.9794921875-16.1323242188,1.9951171875-4.8427734375,4.7197265625-8.9736328125,8.19140625-12.392578125,3.462890625-3.4189453125,7.5673828125-6.0732421875,12.3134765625-7.962890625,4.74609375-1.880859375,9.8701171875-2.830078125,15.380859375-2.830078125,5.09765625,0,9.80859375,.84375,14.150390625,2.53125,4.3330078125,1.6787109375,8.0771484375,4.18359375,11.2412109375,7.4970703125s5.6337890625,7.4443359375,7.4267578125,12.392578125c1.7841796875,4.9482421875,2.671875,10.7270507812,2.671875,17.3627929688Zm-18.3603515625-8.2705078125c0-2.3334960938-.333984375-4.5834960938-.9931640625-6.7192382812-.6591796875-2.14453125-1.705078125-4.0341796875-3.1376953125-5.6689453125-1.423828125-1.6259765625-3.234375-2.9267578125-5.431640625-3.8935546875-2.1884765625-.9755859375-4.763671875-1.458984375-7.7255859375-1.458984375-5.5107421875,0-10.1689453125,1.6611328125-14.0009765625,4.974609375-3.8232421875,3.3134765625-5.94140625,7.576171875-6.345703125,12.7661132812h37.634765625Z"/>
  </g>
  <g>
    <path d="M125.3708331333,.8851746384C59.7657138225,8.1715794354,6.7442191179,62.7481801392,.6644201146,129.0401760565c-3.9589378668,41.7182411005,10.0387368701,80.1504493616,34.9234915833,108.5817124001,2.6864232074,3.0002985545,7.3523136627,3.0002985545,10.3215179055,.142873955l39.7307725563-40.1466548457c-17.3910505328-18.1445699057-26.2986632613-44.7185260298-19.9360798515-73.0069151132,6.3625766677-28.2884027086,29.9748167216-52.2906753306,58.8183744609-58.4341123317,50.3350647552-10.7153013725,94.7317345088,27.8597808436,94.7317345088,76.7215561924,0,21.2877287901-8.3420506576,40.5752767108-21.9155538414,54.7194712525l39.7307792983,40.1466548457c2.82779687,2.8574245995,7.635081214,2.8574245995,10.3215111635-.142873955,22.056934246-25.1452165739,35.4890570251-58.2912247514,35.4890570251-94.5803781882C282.7386310347,58.6049308202,210.6293928428-8.5442900926,125.3708331333,.8851746384Z" style="fill: #f58f8f;"/>
    <path d="M220.1026755145,250.7658290611l-48.6270581644-48.4943582286c-5.7170057509-5.7591093288-1.2551367097-10.9615197913,1.4134192437-12.1018569715,15.7424822005-10.1624448401,26.187992811-27.6576508491,26.187992811-47.6180389039,0-21.2954406591-11.9807521319-39.6391157627-29.5147809309-49.4013064256-.4358049288-.2537559163-.8897324388-.4717592808-1.3324412081-.7141790221-1.8856114246-.9862472211-3.7444704675-1.9829586036-5.7465841998-2.7607946082-2.5406132879-1.0228717863-5.1537169007-1.8774449752-7.8444887185-2.4965745304-.226963755-.0523208075-.4487496297-.0662730228-.6757133847-.1159777899-.8552132365-.1874828935-1.7276860742-.2973565892-2.5967069916-.4464708905-3.1671368093-.5528565324-6.3014803765-.8938137945-9.3771412998-.9330544001-.1872666724-.0017440269-.3607256638-.0549368479-.5488553163-.0549368479-.0552307236,0-.1070095271,.0165682557-.1622402507,.0165682557-3.5684225359-.0017440269-7.0341504449,.4011261907-10.4204841888,1.0368240016-.5652519374,.1037696015-1.1322298348,.1848668531-1.6923038919,.3052047103-2.9384470942,.645289959-5.7811034021,1.528639592-8.5296948838,2.6151683607-1.2081720799,.4630391462-2.3680172765,.9810151403-3.5356292937,1.5207914708-1.2547730029,.5990732457-2.4594931626,1.2757556891-3.661624382,1.9629022941-17.5996152833,9.7438783803-29.6355981389,28.1215620087-29.6355981389,49.4658354215,0,17.0705354548,7.7650945533,32.2078170732,19.8148850897,42.6414580988,1.1287779146,1.0097915844,2.3101976127,1.9498220922,3.5183696926,2.8671802501,.938059322,.6906346588,1.8122581198,1.4414382462,2.7926034646,2.0762640436,.1579253504,.104641615,.2960021596,.2345716202,.4547904901,.3383412217,3.676295043,2.4285574807,4.2415469804,7.7147030634,1.1313668548,10.8583115797l-48.9214764536,49.4326989101c-3.1101801256,3.1436085163-2.6864569176,8.5727643061,.9898381254,11.0013217868,22.3399647366,15.0012475189,49.0621422029,23.7161500187,77.7648589001,23.7161500187s55.4248941635-8.8579127069,77.7648589001-23.7161500187c3.676295043-2.4285574807,4.100018251-7.8577132705,.9898381254-11.0013217868Z" style="fill: #eb1f1f;"/>
  </g>
</svg>